<?xml version="1.0" encoding="utf-8"?>
<!-- Generator: Adobe Illustrator 27.9.0, SVG Export Plug-In . SVG Version: 6.00 Build 0)  -->
<svg version="1.1" xmlns="http://www.w3.org/2000/svg" xmlns:xlink="http://www.w3.org/1999/xlink" x="0px" y="0px" width="512px"
	 height="75px" viewBox="0 0 512 75" style="enable-background:new 0 0 512 75;" xml:space="preserve">
<style type="text/css">
	.st0{fill:#302C67;}
	.st1{display:none;}
	.st2{fill:#FFFFFF;}
</style>
<g id="レイヤー_2">
</g>
<g id="レイヤー_1">
	<g>
		<rect x="-3" class="st0" width="521.4" height="75"/>
		<g>
			<g id="背景_x5F_最後消す" class="st1">
			</g>
			<g id="ロゴ">
				<g>
					<g>
						<path class="st2" d="M113.1,44.5c-0.1,0-0.2,0-0.2,0c0-0.1,0.2-0.2,0.5-0.3c4-1.2,7.9-5.6,7.9-7.2c0-0.8-0.5-1-1-1
							c-0.2,0-0.3-0.1-0.3-0.2c0-0.3,0.4-0.6,0.9-0.6c0.9,0,2.2,1.1,2.2,2c0,0.6-0.5,1.2-0.7,1.5C119.2,43.5,113.8,44.5,113.1,44.5z
							 M130.5,41.7c-0.7-2.1-2.7-4.5-4.4-6.1c-0.4-0.3-0.5-0.5-0.5-0.6c0,0,0,0,0,0c0.7,0,6.9,3.8,6.9,6.7c0,0.8-0.4,1.2-0.9,1.2
							C131.3,42.8,130.8,42.5,130.5,41.7z M130.1,35.5c-1.2,0-2.1-0.9-2.1-2.1c0-1.2,0.9-2.1,2.1-2.1c1.2,0,2.1,0.9,2.1,2.1
							C132.2,34.6,131.2,35.5,130.1,35.5z M131.5,33.5c0-0.8-0.6-1.4-1.4-1.4c-0.8,0-1.4,0.6-1.4,1.4s0.6,1.4,1.4,1.4
							C130.9,34.9,131.5,34.2,131.5,33.5z"/>
						<path class="st2" d="M143.6,48.5C143.5,48.5,143.5,48.5,143.6,48.5c-0.1-0.1,0.2-0.3,0.9-0.7c3.4-2.1,5.8-6.1,5.9-11.2
							c0-1,0-1.7,0.1-2.8c0-0.3,0-0.5,0-0.8c0-1.6-0.5-2.1-1.1-2.1c-0.1,0-0.4-0.1-0.4-0.3c0-0.1,0.3-0.5,0.8-0.5
							c0.7,0,2.8,1,2.8,1.8c0,0.2-0.1,0.4-0.2,0.7c-0.4,0.9-0.5,1.6-0.6,4.3C151.6,45.9,144.2,48.5,143.6,48.5z M145.2,39.5
							c0-0.1,0-0.3,0-0.4c0.1-1,0.1-1.7,0.1-2.4c0-2.7-0.2-4.4-1.4-4.5c-0.2,0-0.4-0.1-0.4-0.3c0-0.3,0.5-0.6,1.1-0.6
							c0.4,0,2.4,0.7,2.4,1.6c0,0.2-0.1,0.3-0.1,0.5c-0.2,0.3-0.2,0.9-0.2,1.2c0,2.6,0,3.2,0.1,4.1c0,0.2,0,0.4,0,0.5
							c0,0.5-0.3,1.6-0.9,1.6C145.6,40.8,145.2,40.4,145.2,39.5z"/>
						<path class="st2" d="M170.8,46.4c-1.5-1.4-3.9-2.7-6.6-3.6c-0.4-0.2-0.7-0.3-0.7-0.4c0,0,0.1-0.1,0.3-0.1
							c1.8,0,8.9,1.3,8.9,3.7c0,0.5-0.3,0.9-0.8,0.9C171.6,46.9,171.2,46.8,170.8,46.4z M168.6,39.2c-1.3-1-2.5-1.7-4.2-2.1
							c-0.4-0.1-0.5-0.2-0.5-0.2c0-0.1,0.3-0.1,1.3-0.1c2.3,0,5.1,0.5,5.1,1.9c0,0.5-0.4,0.8-0.8,0.8
							C169.2,39.6,168.9,39.5,168.6,39.2z M170.2,34.2c-1.5-1-3.4-1.6-5.3-1.9c-0.4-0.1-0.6-0.1-0.6-0.2c0-0.1,1.4-0.3,2.6-0.3
							c4,0,4.9,1.2,4.9,1.9c0,0.4-0.3,0.8-0.8,0.8C170.8,34.5,170.5,34.4,170.2,34.2z"/>
						<path class="st2" d="M190.7,35c0.5-0.2,0.9-0.3,1.2-0.5c0.6-0.2,0.9-0.7,1.7-0.8c0.1,0,0.2,0,0.3,0c1.4,0,1.7,0.2,1.7,0.6
							c0,0.3-0.3,0.6-1,0.7c-0.9,0.2-2.3,0.6-3.7,1c0.3,1,0.5,2,0.8,3c1.1-0.4,2.2-0.7,3.2-1c1.3-0.4,0.8-0.7,2.1-0.7
							c0,0,0.1,0,0.1,0c2.2,0,2.5,0.3,2.5,0.8c0,0.3-0.4,0.7-1,0.7c-1.9,0-3.1,0.1-6.6,1.2c0.5,1.7,1.2,3.4,1.9,5
							c0.2,0.5,0.4,1.2,0.4,1.9c0,0.6-0.2,0.9-0.5,0.9c-0.8,0-1.4-2.2-1.4-2.5c-0.1-0.3-0.1-0.7-0.2-1.2c-0.3-1.1-0.7-2.4-1.1-3.9
							c-1.1,0.4-2.3,0.8-3.6,1.3c-1,0.4-1.1,0.7-2,0.7c-0.8,0-1.9-0.3-2.2-0.4c-0.8-0.3-0.9-1-0.9-1.1c0-0.2,0.1-0.2,0.3-0.2
							c0.1,0,0.3,0,0.5,0.1c0.5,0.1,1,0.2,1.5,0.2c1,0,2.7-0.4,6.1-1.5c-0.3-1-0.6-2-0.9-3c-3.1,1-3.4,1.1-3.9,1.1
							c-1.3,0-1.9-0.8-1.9-1.2c0-0.1,0-0.2,0.2-0.2c0.1,0,0.1,0,0.2,0c0.2,0.1,0.5,0.1,0.9,0.1c1.1,0,2.8-0.4,4.1-0.9
							c-0.1-0.3-0.2-0.6-0.3-0.9c-0.7-2-1-2.7-1.8-2.7c-0.1,0-0.2,0-0.3,0c-0.1,0-0.1,0-0.2,0c-0.2,0-0.3,0-0.3-0.2
							c0,0,0.2-0.8,1.2-0.8c0.7,0,2.4,0.4,2.4,1.3c0,0.1,0,0.3,0,0.4c0,0.2,0,0.3,0,0.5c0,0.4,0.1,0.8,0.3,1.3L190.7,35z"/>
					</g>
					<g>
						<path class="st2" d="M222.9,44.5c-0.2,0-0.3,0.3-0.3,0.4c-0.2,1-0.7,2.4-1.9,3.4c-0.5,0.4-0.9,1-0.9,1.5c0,0.6,0.4,1.1,1,1.1
							c1.3,0,2.7-1.9,2.7-4.3C223.5,46.1,223.4,44.5,222.9,44.5z"/>
						<path class="st2" d="M224.5,44.6L224.5,44.6l-0.1,0.1c0,0-0.1,0.1-0.1,0.2c0,0.1,0,0.2,0,0.3c0.1,0.4,0.1,1,0.1,1.6
							c0,0.6,0,1.1-0.1,1.5c0,0.2,0,0.3,0,0.5c0,0.9,0.5,1.2,0.9,1.2c0.6,0,1.3-0.7,1.3-1.8C226.5,46.6,224.8,44.6,224.5,44.6z"/>
						<path class="st2" d="M224.3,42.4h4.7v0c0,0.7,0.4,1,0.9,1c0.5,0,1.1-0.5,1.1-1.2v-0.1c-0.1-2-0.2-4.9-0.2-6.6
							c0-1.5,0-1.6,0.4-1.8c0.2-0.2,0.6-0.4,0.6-0.8c0-0.4-0.5-0.9-1.7-1.6c0,0-0.1,0-0.1-0.1c-0.1-0.1-0.2-0.1-0.3-0.1
							c-0.2,0-0.5,0.2-0.8,0.7l0,0c-0.1,0.1-0.1,0.2-0.1,0.2H227c0.5-0.6,1.1-1.4,1.6-2.1c0.2-0.2,0.3-0.5,0.5-0.6
							c0.2-0.2,0.3-0.3,0.4-0.3c0.1,0,0.2,0,0.3-0.1c0.1-0.1,0.6-0.3,0.6-0.7c0-0.8-1.8-1.9-2-1.9c-0.1,0-0.1,0-0.8,0.7
							c-0.1,0.1-0.1,0.1-0.3,0.1h-1.4c0.1-0.1,0.1-0.3,0.2-0.4l0-0.1c0.1-0.3,0.1-0.3,0.4-0.3c0.8-0.2,0.9-0.6,0.9-0.8
							c0-0.8-2.6-1.7-2.8-1.7c-0.3,0-0.3,0.4-0.3,0.5c-0.2,2.9-3.1,9.1-4,10.5c-0.3,0.5-0.4,0.7-0.4,0.8c0,0.1,0.1,0.2,0.1,0.2
							l0.1,0.1h0.1c0.4,0,1.5-1.3,2.3-2.4c0,0.7,0.1,1.3,0.1,1.5c0,1.4,0,4.8-0.2,7.9V43c0,0.7,0.4,1,0.9,1c0.6,0,1.2-0.4,1.2-1.1
							L224.3,42.4z M227.5,34.1c0-0.3,0.1-0.3,0.1-0.3c0.2-0.1,0.3-0.3,0.4-0.5h0.9c0,0,0.1,0,0.1,0.1c0,0.4,0.1,1.6,0.1,3h-1.6
							C227.5,35.7,227.5,34.9,227.5,34.1z M229,37.6c0,0.6,0,1.2,0,1.8c0,0.6,0,1.3,0,1.9h-1.5v-3.7C227.5,37.6,229,37.6,229,37.6z
							 M224.2,36.4c0-2.7,0-2.8,0.4-3.1l0,0h1c0,0.6,0.1,1.7,0.1,3.2H224.2z M225.8,39.5c0,0.6,0,1.1,0,1.7h-1.5c0-1.2,0-2.5,0-3.7
							h1.5C225.8,38.3,225.8,39,225.8,39.5z M224.8,32.1c-0.3-0.2-0.7-0.4-1.1-0.7c0.5-0.9,1-1.9,1.6-3.1h1.9
							c-0.1,0.6-0.7,2.7-1.2,3.7H224.8z"/>
						<path class="st2" d="M242.8,36.9c-0.4,0-0.7,0.4-0.9,0.8l0,0c-0.1,0.1-0.1,0.1-0.2,0.1h-5.8c-0.4-0.2-2-1-2.4-1
							c-0.2,0-0.3,0.1-0.3,0.3c0,0.1,0,0.1,0,0.2c0.2,1,0.3,3.1,0.3,3.4c0,0.7,0,1.5,0,2.4c0,2-0.1,4.4-0.2,7v0.1
							c0,0.5,0.4,0.9,1,0.9c0.4,0,0.7-0.1,0.9-0.4c0.2-0.2,0.3-0.5,0.3-0.8c0-0.5,0-1,0-1.5c0-1.3-0.1-2.8-0.1-4.2h6.5
							c0,1.3,0,2.4,0,3c0,0.8-0.3,1.3-1.6,1.3c-0.7,0-1.6-0.1-2.9-0.3c-0.1,0-0.2,0-0.3,0c-0.1,0-0.2,0.1-0.2,0.1l-0.1,0.1v0.1
							c0,0.2,0.2,0.3,1.3,1c0.7,0.4,1.6,0.9,1.7,1.2c0.1,0.2,0.3,0.5,0.6,0.5c0,0,0.9,0,1.8-0.5c0.7-0.4,1.6-1.3,1.6-3
							c0-0.3,0-0.8,0-1.2c0-0.5,0-1,0-1.2c0-0.3,0-0.7,0-1.1c0-0.4,0-0.9,0-1.4c0-0.9,0-1.8,0.1-2.4c0-0.4,0.1-0.4,0.3-0.5
							c0,0,0.1,0,0.2-0.1l0,0c0.2-0.2,0.5-0.3,0.5-0.7C245.1,38.2,243.3,36.9,242.8,36.9z M235.6,43.2c0-1.4,0-2.6,0-3.2
							c0-0.7,0-0.7,0.3-0.9l0,0h1.8c0,0.4,0.1,1,0.1,1.7v2.4L235.6,43.2L235.6,43.2z M239.7,41.6c0-0.3,0-0.6,0-0.9
							c0-0.2,0-0.4,0-0.6c0-0.3,0-0.3,0.2-0.4c0.3-0.1,0.5-0.3,0.5-0.6h1.4c0.1,0,0.2,0,0.2,0.1c0,0.9,0,2.4,0,4h-2.3
							c0-0.2,0-0.5,0-0.7C239.7,42.2,239.7,41.9,239.7,41.6z"/>
						<path class="st2" d="M244.8,33c-0.4,0-1.3,1.2-1.5,1.6c-0.1,0.1-0.2,0.2-0.3,0.2h-3.2c0-0.5,0-1.3,0-2.3h4.5
							c0.7,0,0.7-0.4,0.7-0.6c0-1-2.1-2-2.3-2c-0.3,0-0.9,0.7-1.4,1.3c-0.1,0.1-0.1,0.2-0.2,0.2h-1.3c0-0.4,0-0.7,0-1.1
							c0-0.3,0-0.7,0-1h6.1c0.7,0,0.8-0.4,0.8-0.6c0-1.1-2.2-2.3-2.4-2.3c-0.2,0-0.6,0.2-1.5,1.5c0,0-0.1,0.2-0.2,0.2h-2.7
							c0-0.2,0-0.3,0-0.4c0-0.2,0-0.3,0-0.4c0-1,0.1-1,0.4-1.2c0.1,0,0.2-0.1,0.3-0.1c0.2-0.1,0.5-0.3,0.5-0.6
							c0-0.8-3.2-1.3-3.3-1.3c-0.1,0-0.2,0.1-0.2,0.2c0,0,0,0.1,0,0.3c0.3,1.2,0.3,2.5,0.3,3.6c-1.6,0-3.4-0.2-5.7-0.5l-0.2,0v0.2
							c0,0.4,0.9,1.7,1.5,1.7h0.1c2.2-0.3,2.9-0.3,4.4-0.3h0.1c0,0.1,0,0.3,0,0.5c0,0.4,0,1,0,1.6c-1.2,0-2.4-0.1-4.7-0.4l-0.2,0
							v0.2c0,0.5,0.9,1.7,1.5,1.7h0.1c0.6-0.1,1.1-0.1,1.5-0.2c0.8-0.1,1.1-0.1,1.8-0.1c0,0.8,0,1.7,0,2.3c-1.6,0-4.1-0.1-6.6-0.5
							l-0.2,0v0.2c0,0.4,0.9,1.7,1.5,1.7h0.1c2.4-0.3,3.9-0.3,5.3-0.3h8.8c0.7,0,0.8-0.4,0.8-0.6C247.3,34.4,245.3,33,244.8,33z"/>
						<path class="st2" d="M226.6,44.5c-0.1,0-0.3,0.1-0.3,0.3c0,0.1,0,0.2,0.1,0.4c0.4,0.7,0.9,1.9,1.1,2.7c0.1,0.8,0.6,1.1,1,1.1
							c0.5,0,1.1-0.6,1.1-1.4C229.6,45.7,227,44.5,226.6,44.5z"/>
						<path class="st2" d="M229.3,44.2c-0.4,0-0.4,0.2-0.4,0.3c0,0.1,0.1,0.2,0.2,0.3c0.5,0.5,1.1,1.4,1.4,2c0.3,0.8,0.8,0.9,1,0.9
							c0.5,0,1-0.6,1-1.2C232.5,45.1,230.4,44.2,229.3,44.2z"/>
						<path class="st2" d="M257.4,26.3c0.9,0.6,1.8,1.7,2.2,2.4l0,0c0.4,0.8,1,1,1.3,1c0.7,0,1.3-0.6,1.3-1.4c0-1.8-2.7-2.7-4.5-2.7
							c-0.4,0-0.7,0-0.7,0.3C256.9,26,257,26.1,257.4,26.3z"/>
						<path class="st2" d="M278.4,45.6L278.4,45.6c-0.1,0-0.1,0-0.1,0c0,0-0.1,0-0.2,0c-0.3,0-0.7,0.4-1.8,1.9
							c-0.1,0.1-0.2,0.2-0.3,0.2h-4.3c0-1.4,0-3.6,0-5.9c0-4.2,0-8.3,0.1-9.2l0-0.2c0-1.3,0-1.3,0.5-1.5c0.4-0.2,0.5-0.4,0.5-0.6
							c0-0.1,0-0.1-0.1-0.2h6.1c0.8,0,0.8-0.4,0.8-0.6c0-0.9-2.1-2.3-2.6-2.5l-0.1,0c0,0,0,0,0,0c0,0-0.1,0-0.2,0
							c-0.3,0-0.6,0.4-1.7,1.8c-0.1,0.1-0.2,0.2-0.3,0.2h-4.5c-0.9,0-4.1,0-7.2-0.4l-0.2,0v0.2c0,0.5,0.8,1.7,1.5,1.7h0
							c1.8-0.2,3.5-0.3,5-0.3c0.2,0.9,0.2,2.1,0.2,3.1l0,0.4c0,1.3,0,5.3,0,9c0,2,0,4,0,5.2h-0.9c-0.9,0-4.2,0-7.5-0.4l-0.2,0v0.2
							c0,0.4,0.9,1.7,1.5,1.7h0c2.1-0.2,4-0.3,6.1-0.3h11.7c0.7,0,0.8-0.3,0.8-0.6C281,47.5,279.3,46,278.4,45.6z"/>
						<path class="st2" d="M257.2,34.7L257.2,34.7c0.4,0.6,0.9,0.7,1.2,0.7c0.7,0,1.2-0.6,1.2-1.4c0-1.3-1.5-2.2-3.9-2.2
							c-1.4,0-1.4,0.2-1.4,0.3c0,0.2,0.1,0.2,0.3,0.4l0.1,0.1C255.6,33.1,256.7,34,257.2,34.7z"/>
						<path class="st2" d="M259.6,44.3c0-2.7,1.1-6.1,4.2-13.3c0.1-0.2,0.2-0.5,0.2-0.7c0-0.2-0.2-0.3-0.3-0.3c-0.2,0-0.4,0-2.6,4.1
							c-1.2,2.1-2.5,4.7-3.3,6.3c-0.6,1.1-1.1,1.3-2.3,1.3c-0.3,0-0.9,0-0.9,0.4c0,0.2,0.2,0.4,0.8,0.5c2,0.5,2.2,1.7,2.2,2.7
							c0,0.5-0.1,1-0.1,1.5c0,0.4-0.1,0.7-0.1,1.1v0.4c0,1.6,0.7,2.3,1.4,2.3c0.4,0,0.7-0.2,1-0.6c0.5-0.7,0.5-1.7,0.1-2.8
							C259.8,46.3,259.6,45.4,259.6,44.3z"/>
					</g>
					<g>
						<path class="st2" d="M326.2,39.7c1.2,0.4,1.6,0.9,1.6,1.3c0,0.4-0.4,0.7-1,0.7c-0.2,0-0.7,0-1.7-0.5c-0.4,0.6-3.2,4.6-5.7,4.6
							c-1.2,0-2.5-1.4-2.5-3.6c0-2.1,1.1-4.7,3.2-6.9c-0.3-0.7-0.6-1.4-0.8-2.1c-0.5-1.3-1-2.7-1.3-3.6c-0.1-0.3-0.2-0.5-0.2-0.6
							c0-0.2,0.1-0.2,0.2-0.2c0.3,0,1.5,0.7,2.1,1.9c0.4,0.9,0.8,2.1,1.3,3.5c1.8-1.5,4.2-2.6,6.6-2.7c0-0.4,0.1-0.7,0.1-1.1
							c0-1.2-0.2-2.1-0.7-2.6c-0.2-0.2-0.9-0.2-0.9-0.5c0-0.1,0.2-0.7,1.1-0.7c0.7,0,2.2,0.5,2.2,3.1c0,0.5-0.1,1.1-0.2,1.7
							c4,0.4,7.1,3.8,7.1,7.8c0,7.5-9.5,10.4-12.8,10.4c-0.3,0-0.5,0-0.5-0.1c0-0.1,0.4-0.3,1.3-0.6c3.1-0.8,10-3.8,10-9.9
							c0-3.3-2.3-5.9-5.4-6.5C328.8,34.8,327.6,37.4,326.2,39.7z M320.5,36.1c-1.5,1.8-2.3,3.6-2.3,5.2c0,1.6,0.8,2.7,1.7,2.7
							c0.5,0,2.5-0.7,4.3-3.3C322.6,39.7,321.4,38,320.5,36.1z M321.7,34.9c0.8,1.8,1.9,3.6,3.4,4.4c1.4-2.5,2.3-4.9,2.7-6.8
							C325.7,32.5,323.5,33.4,321.7,34.9z"/>
						<path class="st2" d="M352.9,33.8c1.1-0.4,1.5-0.4,1.8-0.4c1.7,0,3.1,1.1,3.1,5.2c0,6.5-3.3,9.8-6.4,9.8
							c-0.4,0-0.8-0.1-1.1-0.2c-1.3-0.4-0.8-1.6-1.1-2.7c-0.2-0.5-0.2-0.9-0.2-1.1c0-0.1,0-0.1,0.1-0.1c0.1,0,0.4,0.3,0.8,0.8
							c0.5,0.8,1.3,1.2,2.1,1.2c2.6,0,4.4-4.4,4.4-8.4c0-2.1-0.5-3.6-1.7-3.6c-0.2,0-0.9,0.1-2.3,1.1c-1.4,3.5-3.9,8.5-5.6,11.8
							c-0.6,1.2-1.5,1.7-2.1,1.7c-0.4,0-0.7-0.2-0.7-0.7c0-0.5,0.3-1.2,0.9-2.1c1.4-2,4.4-6.5,6-10.2c-0.9,0.5-2.9,1.3-3.8,1.3
							c-1.4,0-2.4-1-2.4-2.3c0-1,0.2-1.1,0.2-1.1c0.2,0,0.4,0.3,0.6,0.6c0.4,0.6,1.1,0.7,1.9,0.7c1.5,0,2.8-0.4,4-0.8
							c0.1-0.3,0.6-2.1,0.6-3.4c0-1-0.2-1.7-1-1.8c-0.4-0.1-0.7-0.2-0.7-0.4c0-0.4,1.3-1.1,1.9-1.1c0.4,0,1.6,0.2,1.6,2
							c0,0.9-0.5,2.7-1,4L352.9,33.8z M365.3,41.8c-0.2-0.1-0.5-0.2-1.1-0.2c-0.5,0-1,0-1.7,0c-0.7,0-0.9-0.1-0.9-0.2
							c0-0.1,0.4-0.2,0.9-0.3c2.1-0.4,3.4-1,3.4-2.6c0-2.4-2.4-3.2-4-3.8c-0.7-0.2-1-0.4-1-0.5c0,0,0.2-0.1,0.4-0.1
							c4,0,6.7,2.2,6.7,4.9c0,1.6-0.9,2.9-2,2.9C365.7,42,365.5,41.9,365.3,41.8z M364.9,32.9c-0.9-0.9-1.9-1.6-2.8-1.9
							c-0.2-0.1-0.5-0.2-0.5-0.3c0-0.2,0.8-0.3,1.6-0.3c2.5,0,3.2,1.2,3.2,1.9c0,0.5-0.4,1-0.8,1C365.5,33.3,365.2,33.2,364.9,32.9z
							 M366.5,28.6c1.8,0,3,0.8,3,1.8c0,0.6-0.4,1-0.8,1c-0.2,0-0.5-0.1-0.8-0.3c-0.9-0.8-2-1.5-2.8-1.9c-0.2-0.1-0.5-0.2-0.5-0.2
							C364.6,29,365.3,28.6,366.5,28.6z"/>
						<path class="st2" d="M381.6,37.8c2.8-3.7,5.9-6,8.5-6c4,0,4.9,5.1,4.9,8.5c0,1.2-0.1,2.9-0.8,4.5c3,1.4,3.3,2.5,3.3,3.1
							c0,0.5-0.3,0.9-0.7,0.9c-0.3,0-0.7-0.2-1.1-0.7c-0.5-0.7-1.3-1.3-2.3-1.9c-1.1,1.7-3.1,2.6-4.9,2.6c-2,0-3.7-1.2-3.7-2.5
							s1.7-2.5,4.6-2.5c1,0,2.1,0.2,3,0.5c0.4-0.9,0.6-2,0.6-3.9c0-4.6-0.9-7.7-3.5-7.7c-1.3,0-4,0.8-8.3,6.4
							c-0.1,1.1-0.2,2.4-0.2,3.7c0,1.6,0.1,3.2,0.4,4.8c0.3,1.6-0.5,2.2-0.8,2.2c-0.5,0-1.1-0.6-1.1-2c0,0,0-0.1,0-0.1
							c0,0,0-0.1,0-0.1c0-1-0.5-2.9-0.9-4.2c-0.7,1.6-1.2,2.8-1.4,4.1c-0.1,0.6-0.9,1.2-1.5,1.2c-0.3,0-0.6-0.2-0.6-0.8
							c0-0.4,0.1-1.5,2.9-6.3c-1.3-2.4-1.6-2.5-2-2.5c-0.5-0.1-0.9-0.5-0.9-1.1c0-0.1,0-0.1,0-0.2c0.4-2.2,4-2.2,5.3-4.2
							c0.2-0.3,0.4-0.4,0.6-0.6v-0.2c0-0.6,0.1-1.1,0.1-1.5c0-2.9-0.8-3.4-1.8-4.1c-0.3-0.2-0.4-0.3-0.4-0.4c0-0.2,0.7-0.5,1-0.5
							c0.7,0,1.8,0.5,2.1,1.6c0.2,0.6,0.3,1.3,0.3,2c0,1-0.1,2-0.2,2.9c0.9,0,1.2,0.4,1.2,0.8c0,0.3-0.2,0.6-0.4,1
							c-0.5,0.7-1.1,1.8-1.6,2.9L381.6,37.8z M381.1,34.2c-1,1.3-3.9,2.3-3.9,3.6c0,0,0,0,0,0c0,0.5,0.1,0.9,1.2,3.3
							c1.2-2.1,1.7-3.1,2.4-4.7C381,35.5,381.1,34.8,381.1,34.2L381.1,34.2z M380.1,44.2c0.1,0,0.1,0,0.4-3.8c-0.3,0.5-0.7,1-1,1.5
							c-0.1,0.2-0.2,0.5-0.3,0.7C379.4,43,379.9,44.2,380.1,44.2z M389,44.9c-1.9,0-3.1,0.8-3.1,1.5c0,0.8,1.4,1.2,2.3,1.2
							c0.8,0,2.7-0.5,3.8-2C391,45.1,390,44.9,389,44.9z"/>
					</g>
					<g>
						<path class="st2" d="M299,34.4c0,5.5-4.4,11.1-6.5,11.1c-1.2,0-1.7-1.7-2.7-3.1c-0.4-0.6-0.6-1.4-0.6-2.3
							c0-3.8,3.3-9.8,10.1-9.8c5.7,0,8.6,3.9,8.6,8c0,7.6-8.7,9.8-10.8,9.8c-0.2,0-0.3,0-0.3-0.1c0-0.1,0.4-0.3,1.1-0.5
							c6.6-1.8,8.4-6.1,8.4-9.2c0-3.7-2.6-7.1-7.3-7.1c-0.3,0-0.6,0-0.9,0C298.7,31.6,299,32.8,299,34.4z M298.1,33.5
							c0-1.8-0.4-2.2-1-2.2c-0.1,0-0.1,0-0.3,0c-0.1,0-0.1,0-0.2,0c-3.8,1.1-6.3,4.8-6.3,8.1c0,2.2,1.1,3.9,2.3,3.9
							C294.4,43.4,298.1,38.1,298.1,33.5z"/>
					</g>
				</g>
			</g>
		</g>
	</g>
</g>
</svg>
