<?xml version="1.0" encoding="utf-8"?>
<!-- Generator: Adobe Illustrator 26.0.3, SVG Export Plug-In . SVG Version: 6.00 Build 0)  -->
<svg version="1.1" id="レイヤー_2_00000131355051086407594770000013690144815082912941_"
	 xmlns="http://www.w3.org/2000/svg" xmlns:xlink="http://www.w3.org/1999/xlink" x="0px" y="0px" viewBox="0 0 230 41"
	 style="enable-background:new 0 0 230 41;" xml:space="preserve">
<style type="text/css">
	.st0{fill:#F7EEDA;}
	.st1{fill:#004094;}
	.st2{fill:#00A1AF;}
	.st3{fill:#003D6D;}
</style>
<g>
	<g>
		<g>
			<rect class="st0" width="40.3" height="40.3"/>
		</g>
		<g>
			<path class="st1" d="M22.5,20.2c0.4,0.2,1.1,0.3,1.1,0.9c0,1-0.2,2,0,3c0,0.1,0,0.3,0.1,0.4c0.1,0.7-0.1,1.4,0.3,2
				c0.1,0.1,0.3,0.3,0.5,0.2c0.2,0,0.3-0.2,0.4-0.3c0.1-0.2,0-0.4,0-0.5c0.1-0.2,0.4-0.5,0.3-0.8c0,0,0.1-0.1,0.2-0.1
				c0.2,0,0.4,0.3,0.5,0c0.1-0.2-0.2-0.3-0.2-0.4c0-0.3,0.4-0.2,0.5-0.1c0.2,0.1,0.4,0.4,0.6,0.6c0.2,0.2,0.4,0.5,0.3,0.7
				c0,0.3-0.4,0.3-0.6,0.5c-0.2,0.3-0.5,0.5-0.4,0.8c0.1,0.3,0.6,0.3,0.9,0.5c0.3,0.3,0.7,0.4,1.1,0.5c0,0,0,0.1,0,0.2
				c0.4,0.2,0.9,0.2,1.3,0.3c0,0,0,0.1,0,0.1c0.6,0.4,1.2,0.5,1.8,0.7c0.1,0.1,0.3,0,0.4,0.1c0,0,0.1,0.1,0.2,0.1
				c0.5,0.1,0.9,0.2,1.4,0.2c0.1,0,0.1,0.3,0.2,0.3c0.9,0.4,0.7,0.2,1.7,0.3c0.2,0,0.4-0.1,0.3-0.4c0,0,0,0,0.1,0.1
				c0.1,0,0.2,0,0.3,0c0,0,0,0.1,0,0.2c-0.1,0-0.2,0-0.3,0c-0.1,0,0,0.1,0,0.2c0.1,0.2,0.2,0,0.3,0c0,0.1-0.1,0.3,0,0.3
				c0.4,0,0.7-0.4,1.2-0.5c0,0.1,0,0.2,0.1,0.2c0.2,0,0.3-0.2,0.5-0.1c0.2,0.1,0.3,0.4,0.2,0.7c-0.1,0-0.2,0-0.3,0.1
				c0,0.4-0.4,0.6-0.7,0.5c0,0-0.2,0.1-0.2,0c-0.7-0.4-1.5-0.6-2.3-0.7c-0.1,0-0.5-0.3-0.6-0.3c-0.2,0-0.4,0-0.6-0.1
				c-0.6-0.1,0.5,0.1-0.1,0c-0.4-0.1-0.8-0.4-1.2-0.4c0,0-0.1,0-0.2,0c-0.7-0.2-1.4-0.5-2.1-0.4c-0.1,0-0.2-0.2-0.3-0.2
				c-0.9-0.1-1.7-0.6-2.5-0.7c-0.7,0-1.4-0.2-2.1-0.5c-0.1,0.2-0.4,0.1-0.5,0.3c0,0.1,0,0.3,0,0.4c0,0.1,0,0.2,0,0.3
				c0.2,0.4,0.4,0.7,0.4,1.2c0,0.2,0.1,0.4,0,0.4c-0.1,0-0.2,0-0.3-0.1c-0.1,0-0.3,0.1-0.1,0.2c0,0-0.1,0-0.1,0
				c0.1-0.1,0-0.2-0.1-0.3c-0.1,0-0.2,0-0.2,0.1c-0.1-0.1-0.3-0.2-0.3-0.4c-0.1,0-0.2,0.1-0.2,0.2c0,0,0,0,0,0.1
				c-0.2-0.1-0.1-0.2,0-0.4c0-0.1,0,0.2,0.2,0.1c0.1-0.1,0.2-0.2,0.1-0.3c0,0-0.1-0.1-0.2,0c-0.2-0.1-0.3-0.3-0.5-0.4
				c-0.1-0.1-0.3-0.2-0.4-0.3c-0.1-0.2,0.1-0.4,0.1-0.7c-0.1-0.5-0.4-0.9-0.5-1.4c0-0.6-0.1-1.2-0.2-1.8c-0.1-0.4-0.2-0.9-0.2-1.4
				c0,0-0.1-0.1-0.1-0.2c0-0.5-0.1-1.1-0.2-1.6c-0.2,0-0.2,0.3-0.2,0.4c0.1,1,0.1,2,0.4,2.9c-0.4-1.2-0.4-2.4-0.6-3.7
				c0,0,0.1-0.1,0.1-0.1c0-0.6,0-1.2,0-1.8c0-0.1,0-0.2,0-0.3c0-0.1,0-0.2,0.1-0.3c-0.1,0,0-0.1,0-0.2C21.6,19.7,22.1,20,22.5,20.2z
				"/>
			<path class="st1" d="M18.3,22.1c0.3,0.2,0.7,0.4,0.9,0.7c0.1,0.3,0.4,0.5,0.4,0.7c0,0.3-0.2,0.8-0.7,0.6c0,0-0.1,0.1-0.1,0.1
				c-0.1-0.1-0.2-0.3-0.3-0.3c-0.2,0-0.4,0-0.4-0.3c-0.1,0-0.1,0.2-0.2,0.2c-0.1,0-0.2-0.4-0.4-0.3c0,0,0.1-0.1,0.1-0.1
				c-0.5-0.5-0.1-1.3,0.4-1.5C17.9,21.9,18.1,22,18.3,22.1z"/>
			<path class="st1" d="M18.7,24.7c0.1,0.1,0.3,0.2,0.4,0.3c0.3,0.2,0.5,0.6,0.5,1c0,1.1,0,1.7,0.1,2.8c0,0-0.1,0.1-0.1,0.2
				c0,0.3,0.2,0.6,0.2,0.9c0,0.2,0,0.4-0.1,0.5c0,0.2-0.4,0.1-0.5,0.1c-0.2,0-0.4-0.1-0.7-0.1c-0.4,0-0.4-0.5-0.7-0.7
				c0,0.2-0.3,0.2-0.4,0.1c-0.4-0.4,0-1-0.2-1.5c0.1,0,0.1,0,0.2,0.2c0,0,0.2,0,0.2-0.1c0-0.5-0.2-0.3-0.2-0.8c0,0-0.1,0-0.1-0.1
				c0-0.2-0.1-0.4-0.1-0.7c-0.1-0.5,0-1,0-1.5c0-0.1-0.1-0.2-0.1-0.2c0.1-0.3,0.1-0.6,0.4-0.7C17.9,24.3,18.3,24.5,18.7,24.7z"/>
			<path class="st1" d="M13.7,20c0.1,0,0.2,0,0.3,0c0.3,0.5,0,1,0.1,1.5c0.1,0.4,0,0.8,0.1,1.2c0.3,0.8,0.8,1.5,1,2.3
				c0.3,1,0.7,1.9,0.8,2.9c0.1,0.4,0.2,0.8,0.3,1.2c0.1,0.3,0.3,0.5,0.3,0.8c0.1,0.4,0.2,0.7,0.1,1c0,0.1-0.3,0.1-0.4,0.2
				c-0.1-0.1-0.3-0.1-0.4,0c-0.2,0-0.4-0.3-0.5-0.4c-0.2-0.1-0.3-0.3-0.5-0.3c0,0,0,0.2,0,0.2c-0.1,0.1-0.2-0.2-0.3-0.2
				c0,0,0,0-0.1,0c0,0,0-0.1,0-0.1c0,0-0.1-0.1-0.1-0.1c0,0,0-0.1,0-0.2c-0.1-0.2,0-0.4,0-0.7c0-0.4-0.3-0.8-0.4-1.3
				c-0.2-0.5-0.1-1.1-0.4-1.6c-0.4-0.8-0.6-1.6-1-2.4c0,0-0.1,0-0.1,0c-0.1,0.4-0.3,0.7-0.4,1.1c-0.1,0.4-0.2,0.9-0.4,1.3
				c-0.1,0.2-0.1,0.4-0.2,0.5c-0.2,0.2-0.3,0.4-0.4,0.6c0,0.2-0.1,0.4-0.1,0.6c-0.3-0.1-0.7,0.1-0.9-0.2c-0.4,0.1-0.7-0.1-1.1-0.4
				c-0.1-0.1-0.4-0.1-0.4-0.2C8.3,26.9,8,26.5,7.8,26c-0.1-0.4-0.2-0.7-0.3-1.1c-0.2-0.6-0.4-1.2-0.7-1.8c-0.2,0.4-0.4,0.9-0.6,1.3
				c-0.1,0.2-0.1,0.4-0.2,0.6c0,0-0.1,0-0.2,0.1c0,0.3-0.1,0.6-0.1,0.8c0,0,0.1,0,0.1,0.1c0,0.3-0.1,0.7,0,1C6.5,28.1,6,29.4,6,30.5
				c0,0.2-0.4,0.2-0.5,0.3c-0.4,0.1-0.9-0.1-1.3-0.2c-0.1,0-0.1-0.2-0.1-0.3c0.1-1.2,0.1-2.3,0.3-3.5c0.3-2.2,0.9-4.1,1.6-6.2
				c0.1-0.4,0.4-0.5,0.7-0.8c0.8,0.2,1.8,0.4,2.3,1.1c0.3,1.2,0.3,2.5,0.7,3.6c0,0,0.1,0,0.1,0.1c0.6-1.2,1.2-2.4,1.8-3.6
				c0.2-0.4,0-1.1,0.6-1.3c0.2,0,0.4,0.1,0.5,0.1c0.1,0,0.3,0,0.5,0C13.2,19.8,13.4,20,13.7,20z"/>
			<g>
				<path class="st1" d="M33.4,19.8c0,0.1,0,0.2,0,0.3c0,0.1,0,0.2,0.2,0.3c0,0,0,0.2,0.1,0.3c0,0,0.1,0,0.1,0
					c0,0.2-0.1,0.4-0.3,0.6c0.1,0.1,0,0.2,0,0.3c-0.1,0.2-0.3,0.3-0.4,0.5c0,0.1-0.1,0-0.2,0c-0.1,0-0.2,0-0.3,0.1
					c0-0.3-0.1,0-0.3,0c-0.1,0-0.1-0.2-0.2-0.3c0,0-0.1,0-0.1,0c-0.1-0.1-0.1-0.2-0.3-0.3c-0.1,0,0-0.2,0-0.4
					c-0.1-0.2-0.4-0.2-0.6-0.5c-0.1-0.1-0.2,0-0.3,0.1c-0.2,0.2-0.1,0.6-0.5,0.5c-0.2-0.1-0.1-0.4,0-0.6c0.1-0.3,0.3-0.5,0.5-0.8
					c0.1-0.1,0.3-0.1,0.4-0.2c0.1,0,0-0.3,0.2-0.4c0,0,0,0,0.1,0c0.1,0,0.2-0.3,0.3-0.3c0.1,0,0.2,0.1,0.3,0.1c0.1,0,0,0.2,0.2,0.2
					c0.1,0,0.2-0.1,0.4-0.1C33,19.5,33.3,19.5,33.4,19.8z"/>
				<path class="st1" d="M31.2,22.6c0.1-0.1,0.2-0.2,0.1-0.3c0,0,0.1,0.1,0.1,0.1c0,0.1,0,0.2,0,0.2c0,0,0,0.3,0.2,0
					c0.1-0.1,0-0.4,0-0.4c0.2-0.1,0.2,0.2,0.4,0.2c0.1,0.1,0,0.2,0,0.3c0,0.1,0,0.3,0,0.5c0,0,0.1,0,0.1,0c0,0,0-0.1,0-0.2
					c0.1,0,0.1,0.1,0.1,0.2c0,0.1,0,0.2,0,0.4c0,0,0,0.1,0,0.1c0,0.1,0,0.2,0.1,0.2c0.2,0,0.1-0.3,0.2-0.5c0,0.2,0,0.3-0.1,0.5
					c-0.2,0.4,0,0.7,0,1.1c0,0.3-0.1,0.6-0.4,0.9c0.2,0.2,0.1,0.4,0,0.6c0,0,0.2,0,0.2,0.1c-0.2,0.2-0.2,0.5,0,0.6l0,0.1
					c0.2,0.1,0.2,0.4,0.4,0.4c0,0,0.1-0.1,0.1-0.2c0.2,0.2,0.1,0.5,0.1,0.8c0-0.1-0.1-0.2-0.2-0.2c-0.2,0.1-0.1,0.1-0.3,0
					c0,0,0,0-0.1,0.1c-0.1-0.1-0.2-0.3-0.1-0.5c-0.2,0.1,0-0.3-0.3,0c0,0.1,0,0.2,0,0.4c0,0,0,0-0.1,0c-0.1-0.1-0.1-0.2-0.4-0.2
					c0,0-0.1-0.1-0.2-0.2c0,0.1-0.1,0.3-0.3,0.2c-0.1,0-0.2-0.2-0.2-0.3c0-1.1,0-2.2-0.1-3.3c0-0.7-0.1-1.3-0.2-2
					C30.8,22.8,31.1,22.7,31.2,22.6z"/>
			</g>
		</g>
		<g>
			<path class="st2" d="M29.4,12.1c0-0.1,0.2,0,0.2,0c0.2,0.1,0.5,0.1,0.7,0.3c0.1,0.1,0.3,0.1,0.3,0.2c0,0.1-0.2,0-0.3,0.1
				c-0.1,0.1-0.2,0.3-0.2,0.4c-0.2,0.1-0.5,0-0.6,0.2c-0.1,0.1-0.3,0.3-0.3,0.4c0,0.1,0,0.2,0,0.3c0,0,0.1,0.1,0.1,0.1
				c0,0-0.1,0-0.1,0.1c0,0.3-0.2,0.4-0.2,0.7c0,0.1,0,0.3,0.1,0.3c0.4,0.5,0.9,0.7,1.4,1.2c0.2,0.1,0.3,0.3,0.4,0.5
				c0.1,0,0.1,0.1,0.2,0.2c0.2,0.3,0.1,0.6,0,0.9c0,0.1,0.2,0.1,0.1,0.2c0,0.3-0.2,0.5-0.4,0.6c-0.1,0-0.2,0-0.2,0
				c-0.3,0.3-0.5,0.6-0.6,1c0,0.1,0.2,0.1,0.1,0.2c-0.1,0.1-0.2,0.2-0.4,0.2c-0.1,0-0.2,0.2-0.3,0.3c-0.1,0-0.2-0.2-0.3-0.2
				c-0.2,0-0.2,0.2-0.2,0.3c-0.2-0.1-0.3,0.1-0.5,0.2c0-0.1-0.1-0.3,0-0.5c0.1-0.1,0.3-0.3,0.3-0.4c0-0.1,0.2-0.1,0.1-0.3
				c0.2,0,0.3-0.2,0.4-0.3c0.4-0.5,0.7-1,0.8-1.5c0-0.2-0.1-0.5-0.3-0.7c-0.6-0.5-1.3-0.9-1.7-1.6c-0.2-0.2-0.2-0.5-0.2-0.8
				c0-0.1,0.2-0.3,0.2-0.4c0-0.2-0.1-0.4-0.1-0.6c0-0.2,0.2-0.4,0.2-0.7c0,0-0.1,0-0.1-0.1c0.1-0.3,0.3-0.5,0.6-0.7
				c0.1-0.1,0.3,0.1,0.5,0C29.1,12.2,29.3,12.2,29.4,12.1z"/>
			<g>
				<path class="st2" d="M26.9,12c0.1,0,0.2,0.1,0.2,0.1c0.3,0.3,0.5,0.7,0.4,1.2c-0.1,0.2-0.4,0.4-0.5,0.1c0,0-0.1,0-0.1,0
					c-0.1-0.1-0.2-0.3-0.3-0.3c0,0,0,0.1-0.1,0.1c-0.1,0-0.2,0-0.2-0.1c0-0.2-0.2-0.4-0.4-0.5c0,0,0.1-0.1,0.1-0.2
					c0-0.2,0-0.3-0.1-0.5c0-0.1,0.1-0.1,0.2-0.2c0.1-0.1,0-0.2,0.1-0.2c0,0,0.1-0.1,0.1-0.1c0.1,0,0.1,0.2,0.2,0.2c0,0,0.2,0,0.2,0
					C26.8,11.8,26.7,11.9,26.9,12z"/>
				<path class="st2" d="M25.4,14.9c0.1,0.2,0.1,0.5,0.2,0.8c0,0.2,0,0.4,0,0.6c0,0.1,0.1,0.3,0.2,0.3c0-0.1-0.1-0.1-0.1-0.2
					c0.1-0.1,0.2-0.1,0.2,0c0.3,0.6,0.7,1,1.2,1.4c0.1,0.1,0.3,0.1,0.5,0.1c0.1,0,0.2,0,0.3-0.1c0.2-0.1,0.4-0.1,0.6-0.2
					c0.1,0,0.2-0.1,0.2-0.2c0.1-0.1,0.1-0.3,0.1-0.3c-0.2-0.4-0.6-0.5-1-0.6c-0.1-0.1-0.3,0.1-0.4,0c-0.4-0.6-0.1-1.4-0.3-2.1
					c-0.1-0.5-0.7-0.6-1.2-0.6c0-0.3-0.3-0.2-0.4-0.4c-0.1,0.2-0.3,0.3-0.4,0.5C25.2,14.2,25.3,14.6,25.4,14.9z"/>
			</g>
			<path class="st2" d="M22.4,15.8c0.1,0,0.2,0.3,0.3,0.5s0.2,1,0.2,1.1c0,0.1,0,0.4,0.2,0.5c0.1,0.1,0.2,0.1,0.3,0.2
				c0.1,0,0.2,0,0.3,0.1c0.1,0,0.3,0,0.4,0c0.2-0.1,0-0.5-0.1-0.7c-0.1-0.3,0-0.6,0.1-0.8c0-0.1,0.1-0.1,0.1-0.2
				c0.1-0.4,0.2-0.7,0.3-1.1c0.2-0.2,0.3-0.3,0.4-0.5c0.1-0.1,0.1-0.2,0.1-0.3c0-0.1,0.1-0.3,0.2-0.6c0.1-0.2,0-0.4-0.2-0.3
				c-0.2,0-0.7,0.2-1.1,0.3c-0.2,0.1-0.3,0.3-0.5,0.4c-0.1-0.2-0.3-0.5-0.5-0.7c-0.3-0.2-0.5-0.4-0.9-0.5c0,0.1-0.2,0.1-0.2,0.2
				c0,0.2-0.2,0.2-0.1,0.4c0.1,0.1,0.2,0.3,0.2,0.4c0,0.5,0.5,0.5,0.4,1c0,0.1,0.1,0.1,0.1,0.1C22.3,15.4,22.3,15.7,22.4,15.8z"/>
			<path class="st2" d="M16.4,15.2c0.1,0,0.2-0.1,0.3-0.3c0.1-0.2,0.3-0.2,0.4-0.3s0.2-0.2,0.3-0.3s0.1-0.1,0.2-0.2s0.3-0.4,0.4-0.5
				s0.1-0.3,0.2-0.4c0.4-0.7,0.4-1.5,0.2-2.3c-0.1-0.4-0.4-0.8-0.6-1.1c-0.4-0.6-1-1-1.7-1.4c-0.1-0.1-0.2-0.1-0.2,0
				c-0.1-0.2-0.3-0.2-0.4-0.4c-0.6-0.3-1.1-0.5-1.7-0.7C12.9,7.1,12.2,7,11.4,7C9.7,7.1,8.1,7.6,7,9c0,0,0,0.1,0,0.2
				C7,9.3,6.9,9.5,6.9,9.6c0.2,0.2,0.5,0.1,0.8,0c0.1,0,0.2,0,0.4,0C8.5,9.5,8.8,9.2,9.2,9c0.1,0,0.3-0.2,0.3-0.1
				c0.3,0.4,0.1,0.8,0.2,1.2c0.3,1.6,0.7,3.1,1.1,4.7c0.2,1.1,0.2,2.5,0.6,3.5c0,0.1,0.2,0.2,0.4,0.3c0.1,0,0.2,0,0.3,0
				c0,0,0.1,0.1,0.1,0.1c0.1,0,0.1-0.1,0.2-0.1c0.3,0.2,0.7,0,0.9-0.2c0.1-0.1,0.2-0.3,0.1-0.5c-0.2-0.6-0.3-1.4-0.5-2
				c0-0.1,0-0.2,0-0.3c0,0-0.1-0.1-0.1-0.1c0.1-0.4,0.7-0.3,1.1-0.3c0,0,0.1-0.1,0.1-0.1c0.2,0.1,0.4,0,0.7,0c0.1,0,0.2-0.1,0.3,0
				c0,0,0,0.1,0.1,0.1c0.3,0.1,0.6,0,0.9,0.1C16.1,15.2,16.2,15.2,16.4,15.2z M16.1,12.4c-0.1,0.2-0.3,0.3-0.3,0.5l0.1,0
				c0,0.2-0.3,0.3-0.1,0.4c-0.1,0.1-0.1,0.3-0.2,0.4c-0.1,0-0.2,0-0.2,0.1c-0.1,0.2-0.3,0.3-0.5,0.3c-0.3,0-0.6,0.1-0.8,0
				c-0.2-0.1-0.4,0.2-0.6,0.2c-0.2,0-0.4,0.1-0.5,0c-0.2-0.1-0.2-0.3-0.2-0.5c-0.2-0.9-0.3-1.8-0.4-2.7c-0.1-0.8-0.2-1.5-0.2-2.2
				c0-0.2-0.3-0.4-0.3-0.6c0-0.1,0.2-0.1,0.2-0.2c0.4,0,0.9-0.2,1.3,0c0.8,0.2,1.7,0.5,2.2,1.2c0.1,0.1,0.2,0,0.3,0.2
				c0.1,0.1,0.2,0.2,0.3,0.3c0,0,0,0.2,0,0.2c0.4,0.3,0.3,0.8,0.4,1.3C16.6,11.7,16.3,12,16.1,12.4z"/>
			<path class="st2" d="M18.4,15.1c0.1,0.1,0.3,0.1,0.3,0.1c0.1,0.2-0.2,0.1-0.2,0.2c0,0-0.1,0.1-0.1,0.1c-0.1,0-0.1-0.1-0.2-0.2
				c0,0-0.1,0-0.2,0c-0.1,0-0.2,0.1-0.3,0.2s-0.2,0.2-0.3,0.4c-0.2,0.3-0.3,0.7-0.5,1c-0.1,0.3-0.2,0.5-0.2,0.8
				c0.1,0.4,0.4,0.7,0.7,1c0.3,0.1,0.7,0.4,1,0.3c0,0,0.1,0.1,0.1,0.1c0.2,0.1,0.5,0.1,0.7,0.1c0.2,0,0.4,0,0.6-0.2
				c0.2-0.1,0.4-0.3,0.5-0.5c0.2-0.2,0.3-0.5,0.5-0.6c0.1,0,0.2,0.2,0.4,0.3c0.3,0.1,0.5,0.3,0.8,0.3c0.3,0.1,0.4,0,0.7,0
				c0.1,0,0.1-0.2,0.1-0.3c0-0.2-0.1-0.2-0.1-0.6c0-0.4-0.3-0.6-0.4-0.6c-0.1,0-0.3-0.1-0.4-0.1c-0.1,0-0.2,0-0.4-0.2
				c-0.3-0.3-0.4-0.7-0.7-0.9c0,0,0-0.1,0-0.1c0,0-0.1,0-0.1,0c-0.4-0.6-1.1-0.8-1.7-1.2c-0.1-0.1-0.3-0.1-0.4-0.2
				c-0.1,0-0.5,0-0.7,0.1s-0.4,0.2-0.3,0.4s0.4,0.2,0.6,0.3C18.2,15,18.3,15.1,18.4,15.1z M19.9,17.3C19.9,17.3,19.9,17.3,19.9,17.3
				c0,0.1-0.1,0.1-0.1,0.2c-0.1,0.1-0.2,0.2-0.3,0.1c0,0,0,0.1-0.1,0.1c0,0-0.1,0-0.1-0.1c-0.2,0.2-0.4,0.2-0.6,0.2
				c-0.2,0.1-0.4,0-0.6,0c-0.1,0-0.3-0.1-0.3-0.2c-0.1-0.3,0.1-0.7,0.4-0.7c0,0,0.1,0.1,0,0.1c0.1-0.1,0.3-0.1,0.4-0.3
				c-0.1,0-0.1,0-0.1-0.1c0-0.2,0.3-0.2,0.4-0.2c0.1-0.1,0.1,0.1,0.1,0.1c0.2,0,0.2-0.2,0.4-0.1c0-0.1,0.1-0.3,0.2-0.2
				c0,0,0.1,0.1,0.1,0.2c0.2,0.2,0.4,0.4,0.4,0.7C20.1,17.1,20,17.3,19.9,17.3z"/>
		</g>
	</g>
	<g>
		<polygon class="st3" points="182.3,10.6 175.6,22.2 168.9,10.6 165.5,10.6 165.5,29.8 168.9,29.8 168.9,16.4 175.1,27.5 
			175.7,27.5 181.9,16.5 181.9,29.8 185.3,29.8 185.3,10.6 		"/>
		<path class="st3" d="M112.9,29.8h4.8l-6.7-7.2h2c1.6,0,3.1-1.5,3.1-3.1l0-5.7c0-1.6-1.5-3.1-3.1-3.1h-12.5v19.2h3.3v-7.2h3.2
			L112.9,29.8z M103.9,13.9l7.5,0c1,0,1.5,0.6,1.5,1.5l0,2.3c0,1-0.6,1.5-1.5,1.5h-7.5V13.9z"/>
		<path class="st3" d="M76.1,13.7c0-1.6-1.5-3.1-3.1-3.1H60.5v19.2h3.3v-7.2H73c1.6,0,3.1-1.5,3.1-3.1L76.1,13.7z M71.3,19.2h-7.5
			v-5.3l7.5,0c1,0,1.5,0.6,1.5,1.5l0,2.3C72.9,18.6,72.3,19.2,71.3,19.2z"/>
		<path class="st3" d="M93.1,29.8h3.8l-8.3-19.2h-0.2h-3h0l-8.1,19.2h3.3l1.8-4.3h9L93.1,29.8z M83.7,22.1l3.2-7.8l3.1,7.8H83.7z"/>
		<g>
			<path class="st3" d="M149.3,15.3v-1.6c0-1.7-1.4-3.1-3.1-3.1h-9.1c-1.7,0-3.1,1.4-3.1,3.1l0,4.8c0,1.6,1.5,3.1,3.1,3.1h9.2v4.9
				l-9.8,0v-2.5l-3.1,0.7v2c0,1.7,1.4,3.1,3.1,3.1h9.9c1.7,0,3.1-1.4,3.1-3.1l0-5.3c0-1.6-1.5-3.1-3.1-3.1h-9.2l0-4.4l9.1,0v2.2
				L149.3,15.3z"/>
		</g>
		<rect x="123.4" y="10.6" class="st3" width="3.4" height="19.2"/>
		<rect x="193.3" y="10.6" class="st3" width="3.4" height="19.2"/>
		<polygon class="st3" points="216.6,29.8 222,29.8 211.3,19.6 220.9,10.6 216,10.6 208,18.6 208,10.6 204.6,10.6 204.6,29.8 
			208,29.8 208,22.8 208.8,22.1 		"/>
		<rect x="226.6" y="10.6" class="st3" width="3.4" height="19.2"/>
	</g>
</g>
</svg>
